# xmcd
# 
# Track frame offsets:
#     150
#     3195
#     21412
#     42735
#     62800
#     79865
#     102205
#     121420
#     148785
#     175500
#     197887
#     214600
#     235982
# 
# Disc length: 3406
# 
# Revision: 10
# Processed by: cddbd v1.5.2PL0 Copyright (c) Steve Scherf et al.
# Submitted via: fre:ac v1.0.31
# 
DISCID=b40d4c0d
DTITLE=Michel_JONASZ - Soul_Music_Airlines
DYEAR=1996
DGENRE=Pop
TTITLE0=Intro
TTITLE1=Soul music airlines
TTITLE2=Croisières mondaines
TTITLE3=Ado
TTITLE4=Cinq ans
TTITLE5=Extra lucide
TTITLE6=Les mots d'amour
TTITLE7=L'air que l'on respire
TTITLE8=Faut qu'ça tienne
TTITLE9=C'est toi
TTITLE10=Hannah
TTITLE11=Cette lady là
TTITLE12=Le bonheur tranquille
EXTD=YEAR: 1996
EXTT0=
EXTT1=
EXTT2=
EXTT3=
EXTT4=
EXTT5=
EXTT6=
EXTT7=
EXTT8=
EXTT9=
EXTT10=
EXTT11=
EXTT12=
PLAYORDER=
